<?xml version="1.0" encoding="UTF-8" standalone="no"?>
<svg
  xmlns="http://www.w3.org/2000/svg"
  version="1.1"
  viewBox="0 0 16 16"
  height="16"
  width="16"
  fill="#FB424C"
  id="Book_FB424C">
  <path clip-rule="evenodd" d="M3.44964 2.7921C3.60721 2.03925 4.27101 1.5 5.04016 1.5H11.7143C11.9211 1.5 12.1172 1.5919 12.2495 1.75081C12.3818 1.90973 12.4367 2.11923 12.3992 2.32259L10.7742 11.144C10.7052 11.5188 10.3481 11.7678 9.97357 11.7046C9.93569 11.711 9.89676 11.7143 9.85706 11.7143H3.58927C3.20464 11.7143 2.89284 12.0261 2.89284 12.4107C2.89284 12.7953 3.20464 13.1071 3.58927 13.1071H10.4096C10.9668 13.1071 11.4455 12.7111 11.5498 12.1636L13.1193 3.92327C13.1913 3.54544 13.5559 3.29749 13.9338 3.36945C14.3116 3.44142 14.5595 3.80606 14.4876 4.18389L12.918 12.4242C12.6886 13.6286 11.6356 14.5 10.4096 14.5H3.58927C2.4354 14.5 1.5 13.5646 1.5 12.4107C1.5 12.3611 1.50173 12.312 1.50512 12.2633C1.49608 12.1894 1.49881 12.1128 1.51491 12.0359L3.44964 2.7921ZM5.54811 3.35714C5.34826 3.35714 5.17084 3.48502 5.10765 3.67461L4.95289 4.13889C4.85268 4.43953 5.07645 4.75 5.39334 4.75H9.05737C9.25721 4.75 9.43463 4.62212 9.49782 4.43253L9.65258 3.96825C9.75279 3.66761 9.52902 3.35714 9.21213 3.35714H5.54811Z" fill-rule="evenodd"></path>
</svg>