<?xml version="1.0" encoding="UTF-8" standalone="no"?>
<svg
  xmlns="http://www.w3.org/2000/svg"
  version="1.1"
  viewBox="0 0 16 16"
  height="16"
  width="16"
  fill="#f2994a"
  id="Project_f2994a">
  <path d="M5.948 2H2.623A.623.623 0 0 0 2 2.623v3.325c0 .344.28.623.623.623h3.325c.344 0 .623-.279.623-.623V2.623A.623.623 0 0 0 5.948 2ZM13.377 2h-3.325a.623.623 0 0 0-.623.623v3.325c0 .344.279.623.623.623h3.325c.344 0 .623-.279.623-.623V2.623A.623.623 0 0 0 13.377 2ZM5.948 9.429H2.623a.623.623 0 0 0-.623.623v3.325c0 .344.28.623.623.623h3.325c.344 0 .623-.28.623-.623v-3.325a.623.623 0 0 0-.623-.623ZM13.377 9.429h-3.325a.623.623 0 0 0-.623.623v3.325c0 .344.279.623.623.623h3.325c.344 0 .623-.28.623-.623v-3.325a.623.623 0 0 0-.623-.623Z"></path>
</svg>