<?xml version="1.0" encoding="UTF-8" standalone="no"?>
<svg
   {'class': ['sc-gikAfH', 'hazjFW'], 'width': '16', 'height': '16', 'viewbox': '0 0 16 16', 'fill': '#00000070', 'role': 'img', 'focusable': 'false', 'aria-hidden': 'true', 'style': '--icon-color: #00000070;'}
   id="Subscribe">
  <metadata
     id="metadata_Subscribe">
  </metadata>
  <defs>
  </defs>
  <path d="M6 13h4a2 2 0 0 1-3.995.15L6 13h4-4ZM8 1a4 4 0 0 1 4 4v3.03l1.684 1.578a1 1 0 0 1 .316.73V11a1 1 0 0 1-1 1H3a1 1 0 0 1-1-1v-.662a1 1 0 0 1 .316-.73L4 8.03V5a4 4 0 0 1 4-4Z"></path>
</svg>